<svg width="39" height="50" viewBox="0 0 39 50" fill="none" xmlns="http://www.w3.org/2000/svg">
<path d="M19.3479 7.35545C17.3808 6.76067 14.9398 8.2705 14.7179 10.6367C14.5662 12.2542 15.1192 13.5319 16.2309 14.5557C16.6615 14.9523 17.1679 15.2623 17.6093 15.6474C18.2358 16.1952 18.7101 16.8526 18.7459 17.7595C18.7527 17.9341 18.6805 18.0995 18.4933 18.1674C18.3223 18.2288 18.2433 18.1107 18.2144 17.9784C17.96 16.8405 17.0945 16.2534 16.257 15.6246C14.8658 14.5808 14.0178 13.207 13.9042 11.3562C13.7678 9.14029 15.0905 7.06215 17.1906 6.28367C18.4944 5.79949 19.7698 6.04177 21.0471 6.17981C21.2736 6.20401 21.6619 6.10733 21.6763 6.49198C21.6904 6.8646 21.362 7.01639 21.0676 7.09554C20.7771 7.17461 20.4712 7.19549 20.172 7.21248C19.8799 7.22858 19.5814 7.1367 19.3113 7.35688L19.3479 7.35545ZM27.3246 13.4896C27.5319 13.4083 27.8821 13.4523 27.9054 13.1689C27.9352 12.8154 27.5732 12.8013 27.3261 12.7692C26.2367 12.6295 25.137 12.5876 24.0543 12.9807C22.8688 13.4123 22.4032 14.3583 22.7361 15.5819C23.0155 16.6092 23.4109 17.6125 23.0769 18.7476C23.0131 18.9651 23.0748 19.1875 23.2936 19.2372C23.5235 19.2881 23.659 19.0767 23.7278 18.8806C23.9853 18.1393 23.9597 17.4002 23.8104 16.6677C23.7109 16.1757 23.5789 15.6916 23.5037 15.1949C23.3908 14.4522 24.3752 13.638 25.0947 13.8629C25.2966 13.9264 25.2212 14.0683 25.1114 14.148C24.2509 14.7732 24.334 15.6231 24.4405 16.4703C24.5555 17.3723 24.708 18.268 24.4317 19.1933C24.3784 19.3728 24.4172 19.5433 24.5858 19.6207C24.8239 19.7291 24.9541 19.5434 25.0641 19.3627C25.2553 19.0488 25.259 18.7067 25.2351 18.3678C25.1784 17.5941 25.2583 16.8113 25.1711 16.0356C25.0838 15.245 25.4588 14.8429 26.2818 14.7195C27.3545 14.5582 28.6468 15.261 28.7847 14.9705C28.9736 14.5722 28.5421 14.4082 28.2871 14.242C27.8498 13.9559 27.1687 13.7654 26.8059 13.8469C26.8055 13.8466 26.9789 13.6257 27.3246 13.4896ZM15.7042 16.3135C13.4931 14.7443 12.7324 12.5397 13.3862 9.79256C13.9729 7.32921 15.6602 5.55658 18.2612 5.46613C18.6951 5.45115 19.1467 5.54996 19.5808 5.51212C19.7067 5.50061 19.7969 5.53231 19.8421 5.36713C19.8865 5.20648 19.7961 5.10878 19.6861 5.0391C18.9755 4.58711 18.292 4.35714 17.4047 4.6548C16.359 5.00471 15.3355 5.51029 14.4781 6.21877C13.8175 6.76526 13.5393 7.59422 13.1773 8.33333C12.3244 10.0765 12.0991 11.8767 12.5796 13.7027C12.807 14.5678 13.2732 15.2811 13.9025 15.8624C14.5488 16.4609 15.2203 17.0435 16.0177 17.4369C16.2398 17.5458 16.5991 17.7993 16.8062 17.4213C16.9679 17.1278 16.6385 16.9607 16.4314 16.8099C16.1953 16.6373 15.9472 16.4783 15.7042 16.3135ZM19.3479 7.35545C18.7116 7.43268 18.1048 7.61115 17.4988 7.86479C15.9932 8.49434 15.3389 10.078 15.6469 11.6924C15.9426 13.242 16.7991 14.356 18.0585 15.1328C19.0949 15.7727 19.7525 16.6298 19.925 17.8747C19.9583 18.1141 20.0049 18.4046 20.3224 18.2942C20.5771 18.2054 20.6023 17.8946 20.5668 17.6706C20.3581 16.3657 19.8495 15.2784 18.6629 14.6063C17.5553 13.9787 16.7795 13.0579 16.4603 11.7339C15.9746 9.72129 17.3627 8.16262 19.3818 8.54397C20.5174 8.75772 21.6253 8.73051 22.7058 8.14344C22.9547 8.008 23.4233 7.98426 23.3184 7.58912C23.2044 7.16363 22.7361 7.33066 22.4634 7.44578C21.703 7.76469 20.9502 7.72756 20.1879 7.67858C19.862 7.65773 19.5105 7.68396 19.308 7.35604C19.3113 7.35658 19.3479 7.35545 19.3479 7.35545ZM17.6972 12.6245C19.1396 13.5854 20.721 13.8003 22.4295 13.1614C23.5758 12.7334 24.671 12.1519 25.8422 11.7916C26.037 11.7327 26.4028 11.7383 26.3473 11.4046C26.2837 11.0337 25.9329 11.1591 25.6857 11.215C25.0292 11.3663 24.3531 11.4748 23.7409 11.7939C22.2557 12.5691 20.7357 12.796 19.1664 12.4634C19.0061 12.4294 18.8455 12.3939 18.6922 12.3382C18.196 12.1604 17.701 11.5536 17.7992 11.172C17.9427 10.6177 18.3367 10.3162 18.8878 10.203C19.4857 10.0806 20.1047 9.94042 20.6759 10.0793C21.6107 10.3074 22.5317 10.0529 23.4586 9.96784C23.6225 9.95216 23.7943 9.89635 23.9434 9.81825C24.2692 9.6465 24.8002 9.4762 24.6828 9.08265C24.5365 8.58739 24.0695 8.9909 23.7449 9.07226C22.8543 9.29676 21.9605 9.44027 21.0645 9.31259C20.2697 9.19986 19.4738 9.22714 18.6787 9.4049C18.063 9.54204 17.5534 9.85553 17.2339 10.4641C16.7222 11.4395 16.8387 12.0218 17.6972 12.6245ZM33.3763 21.8355C32.6325 22.8515 33.2811 23.2255 33.9444 23.6582C34.4045 23.9578 34.6548 24.5124 35.1379 24.8064C35.2734 24.8889 35.4142 25.0228 35.5767 24.8628C35.7225 24.7187 35.6682 24.5483 35.5859 24.3997C35.334 23.9441 34.8899 23.6231 34.7089 23.1062C34.7643 23.0864 34.7883 23.0714 34.8119 23.0708C35.0932 23.0634 35.3419 23.5711 35.5877 23.2136C35.828 22.8639 35.5122 22.525 35.2801 22.2551C35.1984 22.1616 35.0678 22.1013 34.9463 22.0586C34.6864 21.9677 34.541 21.8554 34.7658 21.5562C34.931 21.3351 35.1417 21.0601 34.8415 20.8547C34.5829 20.6779 34.3407 20.9069 34.1304 21.093C34.0282 21.1835 33.9315 21.2793 33.8037 21.4C33.675 21.0862 33.8809 20.8715 33.9686 20.6396C34.0947 20.3076 34.1542 19.9744 34.0231 19.6479C33.9892 19.5632 33.9119 19.4599 33.8343 19.4427C33.6891 19.4123 33.5924 19.5219 33.5563 19.6699C33.3302 20.594 32.7864 21.2715 31.9759 21.7607C31.4341 22.0874 31.4551 22.7899 31.0341 23.2174C30.8916 23.3615 31.0735 23.5101 31.2252 23.5902C31.6279 23.8037 32.0193 24.0424 32.4349 24.2291C32.9897 24.4781 33.401 24.8798 33.7722 25.346C33.9044 25.5112 34.0815 25.7509 34.3392 25.5481C34.5806 25.357 34.4495 25.0941 34.3491 24.8996C34.0858 24.3897 33.6695 24.0352 33.1745 23.7557C31.6711 22.9083 31.6746 22.9022 33.1968 21.9324C33.254 21.8951 33.3169 21.8668 33.3763 21.8355ZM12.6709 5.57756C11.6432 7.17209 11.1627 8.80365 11.0849 10.5423C11.0796 10.6771 11.0954 10.814 11.1181 10.9448C11.153 11.1485 11.2167 11.3606 11.4656 11.3496C11.7528 11.3373 11.7548 11.0761 11.7529 10.8889C11.743 9.95767 12.0115 9.06799 12.246 8.16706C12.7449 6.25023 13.9888 5.16485 15.8259 4.69422C16.032 4.64092 16.3606 4.73525 16.3921 4.39952C16.4191 4.11109 15.5011 3.93961 15.2618 4.03758C14.2759 4.44367 13.3228 4.8051 12.6709 5.57756ZM18.4524 11.1779C18.2816 11.5476 18.5794 11.65 18.813 11.7116C19.6727 11.9358 20.5552 12.1355 21.4622 11.9507C22.978 11.6414 24.4914 11.2868 25.9445 10.6785C26.1401 10.5969 26.4637 10.6066 26.3775 10.2384C26.301 9.90959 26.0345 9.82524 25.7626 9.9175C25.3131 10.0693 24.8548 10.1892 24.4121 10.3463C22.7299 10.9456 21.0499 11.3509 19.3127 10.9664C19.0297 10.9042 18.7154 10.8851 18.4524 11.1779ZM27.0214 15.6287C26.4398 15.7098 26.0879 16.128 26.0582 16.6954C25.9969 17.8542 25.8768 18.997 25.4497 20.1094C25.3573 20.3493 25.356 20.6129 25.646 20.6836C25.8895 20.7425 25.9874 20.5009 26.0734 20.3195C26.4802 19.4633 26.6546 18.5688 26.7042 17.6406C26.7667 16.483 27.0675 16.3069 28.0696 16.794C28.3356 16.9233 28.5896 17.0638 28.8931 17.0914C29.0957 17.1106 29.3112 17.1149 29.4273 16.8982C29.5479 16.6719 29.408 16.515 29.2511 16.3886C29.1234 16.2871 27.9048 15.5053 27.0214 15.6287ZM30.8342 20.4891C31.2199 19.9972 31.4505 19.4199 31.6925 18.8486C31.7754 18.651 31.8189 18.4134 31.6333 18.2965C31.4207 18.1634 31.2637 18.3691 31.1398 18.5342C31.0161 18.7006 30.8861 18.872 30.8072 19.059C30.2059 20.4822 29.0409 21.1198 27.6817 21.4921C27.2262 21.6177 26.753 21.6881 26.3679 22.0183C26.2264 22.1394 26.1689 22.3069 26.1969 22.4794C26.2314 22.6915 26.4216 22.7233 26.5811 22.6868C28.1633 22.3245 29.7496 21.9632 30.8342 20.4891ZM31.9297 24.4455C30.8786 23.4514 29.658 23.8581 28.4478 24.2213C28.2793 24.2717 28.1696 24.4181 28.1762 24.615C28.1826 24.8106 28.2954 24.9374 28.4717 24.9469C28.768 24.9617 29.0745 24.9806 29.365 24.9193C30.7964 24.6174 31.6692 25.4035 32.4536 26.3721C32.5347 26.4723 32.5943 26.593 32.651 26.7113C32.7269 26.8707 32.832 27.0091 33.0225 26.9453C33.2571 26.8664 33.3036 26.6579 33.2614 26.4442C33.1558 25.9094 32.9273 25.4374 32.5662 25.0476C32.3674 24.8333 32.1424 24.6451 31.9297 24.4455ZM11.0881 4.97038C10.3398 6.00625 9.84523 6.98253 10.0799 8.13831C10.1226 8.34621 10.0907 8.67157 10.4471 8.60044C10.7151 8.5466 10.6757 8.30375 10.6832 8.10169C10.733 6.75207 11.3901 5.76586 12.5479 5.07676C12.9025 4.86629 13.2631 4.66292 13.5957 4.41918C13.7759 4.28697 14.018 4.10686 13.8846 3.83253C13.7836 3.62571 13.5431 3.65379 13.3484 3.68402C12.4018 3.83002 11.6696 4.39228 11.0881 4.97038ZM30.5035 21.7071C29.9174 22.3865 29.2696 22.777 28.4171 22.8614C28.0248 22.9006 27.6074 22.9049 27.2711 23.2082C27.1611 23.3071 27.096 23.4484 27.1364 23.5753C27.1585 23.6438 27.292 23.7084 27.3781 23.7072C28.2762 23.6931 29.2059 23.7737 29.9978 23.153C30.8384 22.4942 31.6722 21.8056 32.002 20.7133C32.0762 20.4692 32.2615 20.3085 32.4206 20.1265C32.611 19.9099 32.8162 19.6261 32.6044 19.4004C32.399 19.1837 32.2458 19.3179 32.0941 19.4677C32.0159 19.5449 30.9886 21.1451 30.5035 21.7071ZM20.5426 14.4423C20.4523 14.4 20.2863 14.2916 20.1018 14.2408C19.9351 14.1944 19.7628 14.2702 19.6796 14.4451C19.6189 14.5744 19.6329 14.7323 19.7451 14.8141C21.0806 15.7764 21.4795 17.2088 21.5234 18.8261C21.5271 18.9545 21.5855 19.1271 21.7208 19.1246C21.9195 19.1212 21.9825 18.9316 22.0094 18.7567C22.2714 17.0536 21.8719 15.6104 20.5426 14.4423ZM29.2266 25.5379C29.0753 25.7348 29.0572 25.9595 29.2945 26.0254C30.0784 26.2443 30.6979 26.6791 31.1968 27.3063C31.2767 27.4072 31.4102 27.4687 31.5483 27.4241C31.6975 27.3762 31.7324 27.2351 31.7402 27.0941C31.7905 26.153 30.2838 25.0727 29.3986 25.4172C29.338 25.4412 29.2869 25.4947 29.2266 25.5379ZM27.7178 19.2448C27.8078 18.8763 28.0761 18.5819 28.3832 18.2879C28.6456 18.0362 28.6129 17.7263 28.3266 17.5053C28.0366 17.2814 27.7412 17.3622 27.5397 17.6458C27.1552 18.187 27.1543 18.8029 27.218 19.4109C27.225 19.4753 27.3499 19.5605 27.4275 19.5645C27.589 19.5709 27.6319 19.4097 27.7178 19.2448Z" fill="#00E0EB"/>
<path d="M7.86664 31.7117C7.02038 29.7977 8.24224 27.1423 10.6062 26.6233C12.2221 26.2684 13.5824 26.6681 14.7558 27.6641C15.2103 28.05 15.5866 28.5232 16.0309 28.9214C16.6627 29.4863 17.3862 29.8837 18.3073 29.8069C18.4846 29.7921 18.6427 29.6985 18.6881 29.5009C18.7289 29.3204 18.5997 29.2552 18.4623 29.2425C17.2806 29.1271 16.5793 28.3255 15.8393 27.5574C14.611 26.2813 13.1168 25.5954 11.2321 25.7112C8.97534 25.8495 7.03971 27.4453 6.51456 29.6649C6.18765 31.043 6.59144 32.302 6.89012 33.5757C6.9428 33.8016 6.89347 34.2062 7.28403 34.1728C7.66241 34.1406 7.77492 33.7898 7.81823 33.4823C7.86195 33.1788 7.84493 32.8671 7.82482 32.5626C7.8047 32.2653 7.67464 31.975 7.86353 31.6747L7.86664 31.7117ZM15.0605 39.0097C15.0042 39.2294 15.0923 39.5779 14.8088 39.6367C14.4551 39.7109 14.3959 39.3468 14.3326 39.101C14.0556 38.0173 13.8762 36.911 14.1387 35.7678C14.4272 34.5158 15.3253 33.9273 16.6035 34.1113C17.6766 34.2657 18.74 34.5403 19.8456 34.0613C20.0575 33.9697 20.2901 34.0044 20.3675 34.2193C20.4476 34.4454 20.2508 34.6086 20.0611 34.7026C19.344 35.0552 18.5938 35.1214 17.8349 35.0619C17.3251 35.0226 16.8194 34.9495 16.308 34.9354C15.5433 34.9138 14.843 36.0102 15.16 36.7094C15.2493 36.9055 15.3834 36.8116 15.4502 36.6907C15.9749 35.7432 16.8443 35.7212 17.7139 35.7233C18.6398 35.7271 19.5641 35.7697 20.4649 35.3751C20.6397 35.2989 20.8169 35.3168 20.9162 35.4776C21.0553 35.7047 20.8839 35.8595 20.715 35.9932C20.4215 36.2255 20.0762 36.2719 19.7307 36.29C18.9416 36.3291 18.1604 36.5074 17.3655 36.5159C16.5556 36.5262 16.1959 36.9553 16.1737 37.8025C16.1444 38.9068 17.0157 40.1254 16.7393 40.3009C16.3602 40.5416 16.1407 40.1258 15.9409 39.8888C15.5973 39.4825 15.3199 38.8177 15.357 38.4409C15.357 38.4409 15.155 38.6433 15.0605 39.0097ZM16.4668 26.9128C14.6053 24.8735 12.2822 24.3793 9.58705 25.3824C7.17038 26.2824 5.58898 28.2087 5.82165 30.8488C5.86058 31.2893 6.01671 31.7334 6.03256 32.1768C6.03661 32.3056 6.07989 32.3928 5.91858 32.459C5.76173 32.5239 5.65172 32.4447 5.56759 32.3422C5.02221 31.6804 4.70459 31.0181 4.89489 30.0842C5.11826 28.9837 5.50173 27.8862 6.11097 26.9314C6.58101 26.1956 7.3842 25.8111 8.08614 25.3531C9.7417 24.2739 11.5331 23.8218 13.4386 24.08C14.3413 24.2021 15.1204 24.5843 15.7864 25.148C16.4717 25.7266 17.1443 26.3327 17.6413 27.0897C17.779 27.3006 18.08 27.6322 17.7238 27.8885C17.4473 28.0886 17.2374 27.7765 17.0591 27.5859C16.8552 27.3688 16.6636 27.1379 16.4668 26.9128ZM7.86664 31.7117C7.86542 31.0591 7.97019 30.4235 8.15104 29.7794C8.59976 28.1792 10.1189 27.3205 11.7889 27.4307C13.392 27.5364 14.6247 28.2634 15.5667 29.4395C16.3426 30.4073 17.2909 30.9652 18.5706 30.9843C18.8167 30.9882 19.1162 30.9991 19.0441 31.3337C18.9861 31.6022 18.6751 31.6664 18.4443 31.6585C17.0994 31.6101 15.9371 31.2316 15.1099 30.116C14.3376 29.0747 13.3102 28.4053 11.9323 28.2477C9.83753 28.0075 8.4351 29.6047 9.07214 31.598C9.42968 32.7191 9.54023 33.8423 9.08149 35.0075C8.97561 35.276 9.01001 35.7526 8.59756 35.6958C8.15329 35.6335 8.26376 35.1394 8.34615 34.8495C8.57372 34.0411 8.4424 33.2849 8.29791 32.5205C8.23622 32.1937 8.21893 31.8352 7.86227 31.6714C7.86322 31.6747 7.86664 31.7117 7.86664 31.7117ZM12.9865 29.3868C14.1375 30.725 14.5517 32.2966 14.1189 34.103C13.8291 35.315 13.3778 36.4944 13.1595 37.723C13.1244 37.9273 13.1755 38.2963 12.8314 38.2817C12.4485 38.2637 12.5316 37.8934 12.5573 37.6366C12.6284 36.9542 12.6538 36.2574 12.9001 35.5989C13.4985 34.0011 13.5384 32.4366 13.0068 30.8919C12.9524 30.7341 12.8965 30.5762 12.8212 30.4281C12.5796 29.9488 11.9046 29.5241 11.5311 29.6709C10.9888 29.885 10.7332 30.3208 10.6874 30.8919C10.6382 31.5115 10.5736 32.1546 10.7851 32.7146C11.1322 33.631 10.9897 34.5936 11.0193 35.541C11.0238 35.7087 10.9888 35.8893 10.9285 36.0497C10.7955 36.4004 10.6895 36.9583 10.2771 36.8888C9.75832 36.8026 10.108 36.2803 10.1498 35.942C10.2657 35.0139 10.2994 34.0927 10.0587 33.2029C9.8457 32.4137 9.77409 31.6058 9.85469 30.78C9.91659 30.1406 10.1699 29.5865 10.7452 29.1878C11.6673 28.549 12.2704 28.5942 12.9865 29.3868ZM24.25 44.0864C25.1842 43.208 25.6431 43.817 26.1631 44.4335C26.5232 44.8612 27.115 45.0451 27.4723 45.4968C27.5725 45.6234 27.7254 45.7491 27.5839 45.9332C27.4565 46.0986 27.2775 46.0649 27.117 46.0003C26.6252 45.8024 26.2454 45.3936 25.7004 45.275C25.6873 45.3335 25.6751 45.3596 25.6774 45.3835C25.705 45.6687 26.2491 45.8568 25.9185 46.1498C25.595 46.4363 25.2131 46.1593 24.9113 45.9584C24.8066 45.8874 24.7295 45.7629 24.6712 45.6454C24.5469 45.3941 24.4152 45.2612 24.1408 45.5257C23.938 45.7202 23.6863 45.9673 23.4413 45.6896C23.2303 45.4502 23.4316 45.1769 23.5935 44.9411C23.6722 44.8265 23.757 44.7169 23.8631 44.5726C23.5299 44.4817 23.3386 44.7165 23.115 44.8341C22.7953 45.0029 22.4659 45.1046 22.1195 45.0127C22.0297 44.989 21.9156 44.9238 21.8886 44.8475C21.8398 44.7045 21.9385 44.5931 22.0836 44.5382C22.9894 44.1946 23.6065 43.5604 23.9999 42.6803C24.2626 42.092 24.9753 42.0257 25.3549 41.5469C25.4828 41.385 25.6557 41.5502 25.7555 41.6936C26.0215 42.074 26.3115 42.4399 26.552 42.8367C26.8728 43.3664 27.33 43.7321 27.8475 44.0492C28.031 44.1622 28.2953 44.3113 28.1224 44.5971C27.9594 44.8648 27.6773 44.7651 27.4682 44.6879C26.92 44.4853 26.5098 44.1087 26.1657 43.6432C25.1218 42.2292 25.1161 42.2335 24.3256 43.8929C24.295 43.9554 24.2743 44.0225 24.25 44.0864ZM5.23771 25.1847C6.72129 23.9473 8.31048 23.2583 10.0581 22.9631C10.1937 22.9409 10.334 22.9398 10.469 22.9465C10.6793 22.9564 10.9016 22.9943 10.9214 23.2473C10.9448 23.5391 10.6811 23.5736 10.4917 23.5951C9.54918 23.7011 8.68342 24.0833 7.80204 24.4326C5.92681 25.1757 4.98478 26.5681 4.73802 28.4836C4.70982 28.6985 4.84611 29.0189 4.5107 29.0926C4.22254 29.1558 3.93484 28.2494 4.00403 27.9952C4.29164 26.9482 4.53818 25.9398 5.23771 25.1847ZM11.6185 30.3304C11.9709 30.1117 12.1115 30.3999 12.2028 30.6283C12.5366 31.4693 12.8484 32.3364 12.7746 33.2762C12.6509 34.8468 12.4811 36.4206 12.0473 37.9651C11.9891 38.173 12.0393 38.4988 11.6564 38.4576C11.3146 38.4212 11.1961 38.1624 11.2555 37.876C11.3529 37.4029 11.417 36.9247 11.5206 36.4576C11.9167 34.6828 12.1171 32.9342 11.512 31.2263C11.4138 30.948 11.3553 30.6327 11.6185 30.3304ZM17.1847 38.4367C17.1943 37.8388 17.5732 37.431 18.1429 37.3302C19.3065 37.1239 20.4466 36.8601 21.5177 36.2898C21.7487 36.1666 22.015 36.1325 22.1225 36.4168C22.2124 36.6555 21.9804 36.7846 21.8077 36.894C20.9931 37.412 20.1107 37.6996 19.1787 37.8655C18.0166 38.0729 17.8761 38.3988 18.4932 39.351C18.657 39.6037 18.8307 39.843 18.8964 40.1463C18.9411 40.3486 18.9722 40.5659 18.7677 40.7103C18.554 40.8604 18.378 40.7385 18.2307 40.5957C18.1121 40.4792 17.1702 39.345 17.1847 38.4367ZM22.5724 41.6848C22.1233 42.1359 21.5686 42.4409 21.0212 42.7567C20.8319 42.8651 20.5971 42.9388 20.4559 42.7657C20.2948 42.5674 20.4832 42.3831 20.6347 42.2373C20.7874 42.0915 20.9444 41.9388 21.1236 41.8357C22.4871 41.0506 22.9865 39.7937 23.1934 38.3735C23.2636 37.8975 23.2758 37.4104 23.5615 36.9801C23.6662 36.822 23.8284 36.743 24.0063 36.7498C24.225 36.7582 24.2808 36.9465 24.2638 37.1122C24.0947 38.7565 23.9272 40.4049 22.5724 41.6848ZM26.7078 42.2991C25.572 41.3606 25.831 40.0763 26.0473 38.8078C26.0773 38.6312 26.2116 38.502 26.4114 38.4842C26.6099 38.4663 26.7521 38.5646 26.7836 38.7415C26.8355 39.0392 26.8929 39.3466 26.8671 39.6479C26.7403 41.1322 27.6435 41.9164 28.7203 42.5885C28.8317 42.658 28.9611 42.7033 29.0878 42.7458C29.2583 42.8026 29.4113 42.8916 29.3705 43.0921C29.32 43.3391 29.115 43.412 28.8939 43.396C28.3402 43.356 27.8346 43.1838 27.3956 42.8674C27.1542 42.6932 26.936 42.4892 26.7078 42.2991ZM4.42679 23.6606C5.38053 22.7752 6.30566 22.1537 7.50308 22.2468C7.71853 22.2641 8.04341 22.1913 8.01593 22.5604C7.99489 22.838 7.74454 22.8284 7.54124 22.8612C6.18335 23.0797 5.26843 23.8667 4.71621 25.1228C4.54766 25.5074 4.38705 25.8973 4.18213 26.2638C4.07096 26.4624 3.91908 26.7295 3.62519 26.6289C3.40357 26.5526 3.40198 26.306 3.40827 26.1054C3.43789 25.1304 3.91495 24.3204 4.42679 23.6606ZM23.7623 41.1988C24.3759 40.5218 24.6899 39.8183 24.669 38.9462C24.6597 38.5448 24.612 38.1224 24.8767 37.7447C24.963 37.6212 25.0977 37.5378 25.231 37.5628C25.3029 37.5766 25.3849 37.7035 25.3944 37.7907C25.492 38.7002 25.6893 39.6297 25.1607 40.5075C24.5995 41.4392 24.0074 42.3678 22.9445 42.8372C22.7071 42.9426 22.5677 43.1499 22.4036 43.3334C22.2084 43.5529 21.9471 43.7956 21.6926 43.6097C21.448 43.4291 21.5646 43.2575 21.697 43.0855C21.7653 42.9968 23.2547 41.7592 23.7623 41.1988ZM15.1784 32.0363C15.1243 31.9503 14.9942 31.796 14.9198 31.6158C14.8521 31.4531 14.9073 31.2696 15.0737 31.1637C15.1968 31.0862 15.3581 31.0807 15.4548 31.1839C16.5938 32.4138 18.0912 32.6385 19.7314 32.4813C19.8617 32.4691 20.0434 32.5066 20.0577 32.6436C20.079 32.8449 19.8953 32.9323 19.7219 32.9812C18.0331 33.4582 16.5247 33.2343 15.1784 32.0363ZM27.475 39.4309C27.6552 39.2534 27.88 39.2071 27.9763 39.4387C28.2952 40.2038 28.8118 40.7757 29.5079 41.2019C29.6198 41.2701 29.6987 41.3973 29.6708 41.5425C29.641 41.6992 29.5027 41.7521 29.3611 41.7775C28.4162 41.9456 27.1366 40.5574 27.3746 39.6198C27.3912 39.5556 27.4389 39.4972 27.475 39.4309ZM20.9265 38.69C20.5652 38.8269 20.3011 39.1348 20.0422 39.4818C19.8205 39.7784 19.5032 39.784 19.2442 39.5221C18.9817 39.2569 19.0266 38.9482 19.2881 38.7092C19.7872 38.2532 20.4096 38.1756 21.0321 38.1641C21.098 38.1632 21.1997 38.2788 21.2134 38.3568C21.24 38.5192 21.0824 38.5826 20.9265 38.69Z" fill="#00E0EB"/>
</svg>
