<svg width="20" height="36" viewBox="0 0 20 36" fill="none" xmlns="http://www.w3.org/2000/svg">
<path d="M17.2876 6.17596C16.5986 4.76372 14.5526 4.09221 13.1857 5.10312C12.2513 5.79412 11.8567 6.72517 11.8817 7.85402C11.8914 8.2913 11.9857 8.73032 12.007 9.16824C12.0365 9.79038 11.9303 10.3781 11.4681 10.8347C11.3792 10.9226 11.2546 10.9607 11.1231 10.8863C11.0033 10.8179 11.0255 10.7159 11.0809 10.6356C11.5539 9.94283 11.4231 9.16492 11.3288 8.38303C11.1716 7.08453 11.4666 5.93834 12.3891 4.98326C13.4935 3.83951 15.2697 3.59741 16.7542 4.42543C17.6762 4.93904 18.199 5.7858 18.7778 6.58348C18.8806 6.72476 19.1301 6.90063 18.9336 7.09383C18.7434 7.28113 18.4954 7.1661 18.3031 7.03559C18.1129 6.90728 17.9457 6.74219 17.784 6.57906C17.6263 6.41954 17.5226 6.20445 17.2682 6.15574L17.2876 6.17596ZM18.1095 13.6929C18.2584 13.7725 18.4139 13.9942 18.5759 13.8713C18.7785 13.7183 18.6011 13.5043 18.4919 13.3473C18.0099 12.6564 17.4707 12.0066 16.7098 11.5758C15.876 11.1047 15.1371 11.293 14.6588 12.072C14.2571 12.726 13.9274 13.4349 13.1555 13.7895C13.0077 13.8577 12.9214 14 13.0068 14.1491C13.0972 14.3052 13.2783 14.2811 13.4173 14.2262C13.9415 14.0171 14.32 13.647 14.6319 13.2093C14.8418 12.9157 15.0309 12.6073 15.2556 12.3254C15.5914 11.9036 16.5254 12.0757 16.7734 12.5957C16.8429 12.7418 16.7292 12.767 16.6309 12.7424C15.8605 12.5504 15.4526 13.0067 15.0581 13.4751C14.6389 13.9747 14.2422 14.4928 13.611 14.7796C13.4887 14.8354 13.4181 14.9396 13.4632 15.0734C13.5273 15.2618 13.6922 15.2471 13.844 15.2232C14.1079 15.1816 14.291 15.0192 14.4584 14.8426C14.8394 14.438 15.2949 14.1074 15.6614 13.6844C16.0356 13.2542 16.4401 13.2755 16.9256 13.6874C17.5586 14.224 17.8459 15.3018 18.0702 15.2411C18.3777 15.1577 18.2443 14.8318 18.2022 14.6059C18.1306 14.2179 17.8838 13.7363 17.6554 13.5677C17.6554 13.5674 17.861 13.5604 18.1095 13.6929ZM10.6816 8.39785C10.3842 6.37725 11.1639 4.88146 12.9531 3.93468C14.5577 3.08597 16.3582 3.19953 17.7338 4.64519C17.9633 4.88644 18.1414 5.19249 18.3831 5.42284C18.4534 5.48941 18.4827 5.5563 18.5933 5.50274C18.701 5.45088 18.7067 5.35215 18.6874 5.25567C18.5642 4.63147 18.3371 4.1295 17.7264 3.76465C17.0073 3.33423 16.2169 2.99135 15.4039 2.84117C14.7772 2.72578 14.1959 2.96513 13.6196 3.11332C12.2607 3.46329 11.1919 4.20002 10.4698 5.35327C10.1276 5.89956 9.98757 6.50949 10.0009 7.14938C10.0137 7.80716 10.0478 8.4718 10.2464 9.11755C10.3021 9.29712 10.3512 9.62469 10.6572 9.5615C10.8952 9.51296 10.8156 9.24402 10.7898 9.05288C10.7607 8.8347 10.7183 8.61624 10.6816 8.39785ZM17.2876 6.17596C16.9219 5.84884 16.5176 5.58723 16.0738 5.36223C14.9717 4.80302 13.7987 5.18996 13.1006 6.14267C12.4305 7.05719 12.2776 8.08332 12.5089 9.17793C12.6989 10.079 12.5805 10.8678 12.009 11.5652C11.8992 11.6994 11.7691 11.8658 11.9896 11.9944C12.1667 12.0976 12.3442 11.9625 12.4448 11.8345C13.0296 11.0874 13.346 10.2734 13.0964 9.27078C12.8635 8.33482 12.9553 7.44782 13.4938 6.62839C14.3122 5.38236 15.8465 5.42754 16.6752 6.76698C17.1416 7.51992 17.7216 8.14116 18.5842 8.47747C18.783 8.55483 19.0348 8.81174 19.1906 8.56164C19.3578 8.29171 19.0303 8.10394 18.8301 8.00317C18.2729 7.72116 17.9084 7.27231 17.5452 6.81231C17.3899 6.61568 17.1965 6.42705 17.2669 6.15344C17.2683 6.15559 17.2876 6.17596 17.2876 6.17596ZM13.6534 7.76481C13.8806 9.05278 14.574 10.0615 15.7846 10.7325C16.5965 11.1829 17.4637 11.5304 18.2525 12.0276C18.3831 12.1109 18.5668 12.3229 18.7153 12.1307C18.8794 11.9159 18.6338 11.7754 18.478 11.6607C18.0627 11.3576 17.6601 11.0227 17.1785 10.8256C16.0097 10.3481 15.1136 9.58696 14.4887 8.52854C14.4249 8.42041 14.3617 8.31136 14.3129 8.19681C14.1539 7.82722 14.2227 7.25201 14.475 7.12468C14.8419 6.94027 15.2028 7.02092 15.5441 7.28196C15.9141 7.56545 16.3044 7.85241 16.5224 8.24622C16.8787 8.89115 17.4837 9.29606 18.0019 9.78583C18.0939 9.87212 18.2112 9.94368 18.3286 9.99146C18.5859 10.0954 18.9472 10.3175 19.0958 10.0611C19.2835 9.73912 18.8313 9.66579 18.6225 9.51906C18.049 9.11713 17.5167 8.67444 17.1269 8.09999C16.7809 7.59074 16.3602 7.14816 15.8602 6.77843C15.4732 6.49186 15.047 6.35086 14.5615 6.46061C13.7835 6.63671 13.5345 6.98344 13.6534 7.76481ZM16.777 21.1714C15.8591 21.2341 15.992 21.7854 16.1013 22.3732C16.1775 22.7807 16.0114 23.1907 16.1023 23.6087C16.1278 23.726 16.1287 23.871 16.2964 23.887C16.4472 23.9013 16.5097 23.7882 16.5465 23.6696C16.6593 23.3063 16.6026 22.8977 16.7841 22.5455C16.8229 22.5677 16.843 22.5741 16.8554 22.5874C17.0029 22.7449 16.8609 23.1314 17.1757 23.1002C17.4837 23.0697 17.502 22.7259 17.5266 22.4632C17.5344 22.3714 17.4997 22.2677 17.4602 22.1776C17.3758 21.9851 17.3611 21.8478 17.6343 21.8326C17.8358 21.8209 18.089 21.8092 18.0446 21.5386C18.0063 21.3055 17.7613 21.277 17.5553 21.2461C17.4552 21.2311 17.3551 21.2217 17.2259 21.2066C17.3265 20.982 17.5453 20.9967 17.713 20.9354C17.9532 20.848 18.1602 20.7218 18.2662 20.4896C18.2938 20.4295 18.3091 20.3356 18.2786 20.2829C18.2205 20.1852 18.1131 20.1825 18.0163 20.233C17.4113 20.548 16.7747 20.5624 16.1018 20.3336C15.6521 20.1805 15.2907 20.5304 14.8493 20.4949C14.7002 20.4827 14.7143 20.6583 14.7493 20.7836C14.8418 21.1169 14.9151 21.4558 15.0284 21.7835C15.1796 22.2209 15.1768 22.6496 15.1192 23.0863C15.0992 23.2414 15.0626 23.4581 15.3016 23.5081C15.5261 23.5544 15.5985 23.3529 15.6503 23.2019C15.786 22.8059 15.7613 22.3971 15.6567 21.9793C15.3382 20.711 15.3432 20.7101 16.6341 21.1152C16.683 21.13 16.7301 21.1525 16.777 21.1714ZM14.8211 1.49814C13.4517 1.67658 12.342 2.18606 11.3812 2.97769C11.307 3.03948 11.2426 3.11432 11.1849 3.19025C11.0948 3.30819 11.0149 3.44666 11.1478 3.58385C11.3009 3.74242 11.4403 3.6179 11.5385 3.52685C12.0268 3.0733 12.6353 2.79919 13.2323 2.50018C14.5025 1.864 15.7125 2.05419 16.8997 2.87971C17.0331 2.97205 17.1509 3.20556 17.3448 3.06214C17.5114 2.93887 17.1337 2.33084 16.9596 2.24092C16.2412 1.87177 15.5631 1.49987 14.8211 1.49814ZM14.8053 7.50153C14.5222 7.58153 14.62 7.80128 14.7066 7.96461C15.0266 8.56468 15.3714 9.16598 15.9323 9.59638C16.8699 10.3155 17.8303 11.0114 18.8944 11.5509C19.0375 11.6236 19.1975 11.8136 19.3486 11.5871C19.4837 11.3852 19.3924 11.1921 19.2047 11.0808C18.8948 10.8964 18.5973 10.6917 18.2881 10.5138C17.1119 9.83887 16.0396 9.07189 15.3565 7.8924C15.245 7.7004 15.0947 7.51126 14.8053 7.50153ZM16.8215 14.548C16.4816 14.2541 16.0804 14.2537 15.7646 14.5096C15.1194 15.0317 14.4526 15.5125 13.6452 15.803C13.471 15.8655 13.3307 15.9915 13.4413 16.1915C13.5343 16.3593 13.7123 16.2991 13.8523 16.2611C14.5136 16.0823 15.0765 15.7519 15.5936 15.334C16.2388 14.8131 16.4856 14.9006 16.7392 15.7086C16.8064 15.9231 16.8617 16.1361 17.002 16.3231C17.0952 16.4483 17.2029 16.5738 17.377 16.536C17.5585 16.4963 17.5702 16.3407 17.5571 16.1901C17.5456 16.0681 17.3378 14.9945 16.8215 14.548ZM16.1927 19.0685C16.6502 19.0527 17.0737 18.9071 17.5 18.7709C17.647 18.7233 17.7951 18.634 17.7623 18.4715C17.7243 18.2857 17.5352 18.2948 17.3844 18.3033C17.2331 18.3125 17.0759 18.3205 16.9366 18.3652C15.8756 18.7054 14.9431 18.345 14.0521 17.7459C13.753 17.5455 13.4741 17.3084 13.1026 17.2467C12.9662 17.2239 12.8482 17.2716 12.771 17.3706C12.6763 17.4923 12.7565 17.6165 12.8572 17.6903C13.8569 18.4219 14.858 19.1564 16.1927 19.0685ZM14.6558 21.5983C14.6459 20.5184 13.8074 20.0152 12.9972 19.497C12.8844 19.4248 12.7509 19.4323 12.65 19.5308C12.5496 19.6285 12.54 19.7541 12.625 19.8596C12.7684 20.0364 12.9148 20.2209 13.0956 20.3578C13.9862 21.0321 14.0153 21.9099 13.9025 22.8248C13.8908 22.9194 13.8573 23.0116 13.8235 23.1009C13.7779 23.221 13.7582 23.3478 13.8892 23.4262C14.0508 23.5225 14.185 23.4489 14.2767 23.322C14.5061 23.0044 14.6395 22.6465 14.6617 22.2523C14.6738 22.0354 14.6586 21.8161 14.6558 21.5983ZM14.3348 0.299921C13.404 0.369646 12.6343 0.555988 12.1418 1.24618C12.0534 1.37058 11.8648 1.50882 12.0844 1.67865C12.2497 1.80619 12.3583 1.66685 12.4692 1.57398C13.2096 0.953446 14.0675 0.855363 15.0237 1.18689C15.3162 1.28866 15.608 1.39736 15.9069 1.47055C16.069 1.51016 16.2879 1.56211 16.3652 1.35383C16.4232 1.19656 16.2856 1.07237 16.1702 0.975408C15.6096 0.503637 14.938 0.354843 14.3348 0.299921ZM15.3786 19.4649C14.7195 19.456 14.1819 19.2729 13.702 18.8254C13.481 18.6197 13.2656 18.3827 12.9332 18.3361C12.8247 18.3206 12.7166 18.3514 12.67 18.4355C12.645 18.4811 12.6789 18.5885 12.7235 18.6373C13.1894 19.1447 13.6213 19.7157 14.3544 19.8707C15.1325 20.0351 15.923 20.1813 16.6701 19.8448C16.8373 19.77 17.017 19.7987 17.1947 19.8023C17.4066 19.8072 17.6617 19.7882 17.6731 19.5584C17.6831 19.3366 17.5338 19.3134 17.377 19.2986C17.2962 19.2909 15.924 19.4723 15.3786 19.4649ZM14.1428 10.2681C14.1192 10.1961 14.0918 10.0489 14.0245 9.91882C13.964 9.80108 13.8359 9.73892 13.7008 9.7754C13.6013 9.80277 13.5248 9.88676 13.5387 9.99033C13.7106 11.2177 13.1553 12.1349 12.3209 12.9378C12.2547 13.0018 12.1931 13.1182 12.2635 13.1944C12.3667 13.3066 12.4994 13.2515 12.6057 13.1828C13.6418 12.5137 14.2025 11.591 14.1428 10.2681ZM12.6972 20.576C12.5156 20.5841 12.3874 20.6818 12.4736 20.8493C12.7578 21.4035 12.8436 21.9672 12.766 22.5545C12.7534 22.6488 12.7889 22.7548 12.883 22.8124C12.9845 22.8747 13.0771 22.8269 13.1558 22.7635C13.6801 22.3398 13.4833 20.9576 12.8489 20.6165C12.8053 20.5933 12.7509 20.5897 12.6972 20.576ZM15.2611 16.6858C15.5023 16.5601 15.7952 16.5721 16.1078 16.6066C16.3751 16.6357 16.5226 16.468 16.4935 16.1978C16.4641 15.9241 16.2704 15.7938 16.0173 15.8148C15.5344 15.855 15.2076 16.1507 14.9179 16.4795C14.8874 16.5145 14.9061 16.627 14.9436 16.6733C15.0226 16.7689 15.1299 16.7159 15.2611 16.6858Z" fill="#00E0EB" fill-opacity="0.76"/>
<path d="M2.14567 16.9633C2.84125 15.606 4.90682 15.1934 6.28677 16.4171C7.2301 17.2536 7.6285 18.2635 7.60323 19.4198C7.59344 19.8677 7.49823 20.3059 7.47675 20.7528C7.44691 21.3879 7.55413 22.0061 8.02074 22.5378C8.11059 22.6401 8.23628 22.6962 8.36908 22.6375C8.49004 22.5835 8.46761 22.4757 8.41172 22.3858C7.93421 21.61 8.06622 20.8286 8.16143 20.0381C8.32013 18.7255 8.02232 17.5081 7.09099 16.402C5.97601 15.0773 4.18282 14.5879 2.68413 15.2374C1.75327 15.64 1.22555 16.439 0.641134 17.18C0.537388 17.3112 0.285527 17.4581 0.483858 17.6832C0.675872 17.9013 0.926312 17.8168 1.12038 17.7088C1.31239 17.6027 1.4812 17.4558 1.64447 17.3101C1.80364 17.1676 1.90833 16.9607 2.16525 16.9452L2.14567 16.9633ZM1.31587 24.5739C1.16554 24.6355 1.00858 24.8422 0.844991 24.6939C0.640502 24.5093 0.819568 24.3135 0.929787 24.1671C1.41646 23.5226 1.96076 22.9282 2.72897 22.5888C3.57077 22.2177 4.31672 22.5113 4.7996 23.3764C5.20511 24.1027 5.53797 24.8756 6.31724 25.3445C6.46646 25.4345 6.55363 25.5924 6.46741 25.734C6.37614 25.8822 6.19329 25.8329 6.05291 25.7576C5.52376 25.4718 5.14163 25.0403 4.82676 24.5484C4.61485 24.2183 4.42394 23.8759 4.19703 23.5558C3.85801 23.0771 2.91515 23.1272 2.66471 23.6278C2.5946 23.7685 2.70939 23.8097 2.80856 23.7978C3.58641 23.705 3.99823 24.229 4.39647 24.7637C4.81966 25.3337 5.22011 25.9197 5.85742 26.2999C5.9809 26.3737 6.05212 26.4904 6.00664 26.6217C5.9419 26.8065 5.77547 26.7691 5.62214 26.7239C5.35575 26.6455 5.17084 26.4538 5.00188 26.2497C4.61722 25.7825 4.1574 25.3811 3.78742 24.8969C3.40955 24.4042 3.00121 24.3714 2.51106 24.7287C1.87202 25.1941 1.58194 26.2624 1.3555 26.1696C1.04506 26.0423 1.17975 25.7255 1.22223 25.4992C1.29455 25.1103 1.54373 24.649 1.77427 24.5068C1.77427 24.5065 1.56678 24.4715 1.31587 24.5739ZM8.81485 20.1411C9.11503 18.1057 8.32787 16.4634 6.52157 15.2483C4.90161 14.159 3.08395 14.0317 1.69516 15.3303C1.46351 15.5471 1.28366 15.8373 1.03969 16.0412C0.968632 16.1001 0.939103 16.1648 0.827463 16.0948C0.718665 16.0269 0.712981 15.9247 0.732403 15.8282C0.856834 15.2037 1.08611 14.7188 1.70258 14.4268C2.42864 14.0821 3.22654 13.837 4.04734 13.7929C4.68007 13.7593 5.26685 14.0839 5.84873 14.3143C7.22063 14.8579 8.2996 15.7596 9.02866 17.0422C9.37416 17.6497 9.51548 18.2953 9.50206 18.9508C9.48911 19.6248 9.45469 20.3029 9.25415 20.9394C9.19793 21.1163 9.14835 21.4461 8.83948 21.3398C8.59915 21.2576 8.67953 20.9922 8.70558 20.7993C8.73495 20.5791 8.77774 20.3604 8.81485 20.1411ZM2.14567 16.9633C2.51485 16.6768 2.92304 16.4629 3.37102 16.2919C4.48363 15.8668 5.66793 16.4233 6.37267 17.4966C7.04914 18.5268 7.20357 19.6017 6.97003 20.6948C6.77817 21.5947 6.89771 22.421 7.4747 23.2149C7.58555 23.3676 7.71693 23.5562 7.49428 23.6585C7.31553 23.7404 7.1363 23.5776 7.03477 23.4325C6.44436 22.5858 6.12491 21.7067 6.37693 20.7105C6.61205 19.7806 6.51936 18.857 5.97569 17.9422C5.14952 16.5513 3.60046 16.3898 2.76387 17.6535C2.29299 18.3637 1.70748 18.9233 0.836621 19.1519C0.635922 19.2044 0.381691 19.4342 0.224416 19.1562C0.0556146 18.8562 0.386272 18.7077 0.588393 18.6313C1.15086 18.4171 1.51894 18.0055 1.88559 17.5821C2.0424 17.4012 2.23757 17.2336 2.16651 16.943C2.16509 16.945 2.14567 16.9633 2.14567 16.9633ZM5.81463 19.088C5.58519 20.3803 4.88519 21.3226 3.66299 21.8478C2.8433 22.2005 1.96786 22.4399 1.17154 22.8438C1.03969 22.9116 0.854149 23.1046 0.704296 22.887C0.538652 22.6441 0.786565 22.533 0.94384 22.4363C1.36308 22.1812 1.76953 21.8917 2.25573 21.7546C3.43576 21.4224 4.34041 20.762 4.97125 19.7594C5.03567 19.6569 5.09947 19.5535 5.14873 19.4424C5.30933 19.0843 5.23985 18.4841 4.98514 18.3191C4.61469 18.0799 4.2504 18.1139 3.90585 18.3358C3.53225 18.5768 3.13827 18.8187 2.91815 19.1937C2.55843 19.808 1.94765 20.1419 1.42451 20.5748C1.33166 20.651 1.21323 20.7086 1.09464 20.7418C0.834885 20.8137 0.470121 20.9929 0.32011 20.7093C0.130621 20.3532 0.587129 20.3391 0.797934 20.2167C1.37698 19.8815 1.91433 19.4989 2.30784 18.9616C2.65713 18.4853 3.08189 18.0877 3.58672 17.7757C3.97738 17.5337 4.40768 17.4466 4.89782 17.6252C5.68325 17.9115 5.93464 18.3015 5.81463 19.088ZM2.66107 32.4369C3.58783 32.6257 3.45361 33.174 3.34323 33.7631C3.26633 34.1713 3.43403 34.6151 3.34228 35.0321C3.31654 35.1491 3.3156 35.2979 3.14632 35.2917C2.9941 35.2859 2.93094 35.1613 2.89383 35.0345C2.77998 34.646 2.83714 34.2339 2.65397 33.8475C2.61481 33.865 2.59444 33.8689 2.58196 33.8808C2.43306 34.0227 2.57644 34.439 2.25857 34.3643C1.94765 34.2912 1.92918 33.9355 1.90439 33.6623C1.89649 33.567 1.93154 33.4651 1.97134 33.3779C2.05661 33.1916 2.07145 33.0526 1.79559 33C1.5922 32.9606 1.33655 32.9143 1.3814 32.6423C1.42009 32.4081 1.66737 32.412 1.87533 32.4081C1.97639 32.4063 2.07745 32.4103 2.20788 32.4122C2.10635 32.1679 1.88544 32.1533 1.71616 32.0676C1.47362 31.9452 1.26471 31.7876 1.15764 31.5347C1.12985 31.4692 1.11438 31.3707 1.14517 31.3207C1.20375 31.2281 1.31224 31.2399 1.40998 31.305C2.02076 31.7105 2.66344 31.8116 3.34276 31.6677C3.79674 31.5714 4.16166 31.9798 4.60727 32.0032C4.75776 32.0109 4.74355 32.1893 4.70817 32.3133C4.61485 32.6431 4.54079 32.9814 4.42647 33.3027C4.27377 33.7315 4.27662 34.1722 4.33473 34.6287C4.35494 34.7908 4.39189 35.0183 4.15061 35.0373C3.92401 35.0544 3.8509 34.8376 3.79863 34.6755C3.66157 34.2503 3.68652 33.8337 3.79216 33.4186C4.11366 32.1589 4.1086 32.1573 2.8054 32.3985C2.75598 32.4071 2.70845 32.4238 2.66107 32.4369ZM4.6357 12.4922C6.01817 12.8611 7.13852 13.5349 8.10854 14.4783C8.18338 14.5518 8.24844 14.6374 8.30671 14.7232C8.39766 14.8566 8.47835 15.0097 8.34413 15.1326C8.18954 15.2747 8.04885 15.1279 7.94968 15.0211C7.4567 14.489 6.84244 14.125 6.23971 13.7369C4.95735 12.9112 3.73579 12.9426 2.53728 13.6298C2.40258 13.7065 2.28368 13.9305 2.08787 13.7568C1.9197 13.6076 2.30105 13.0342 2.4768 12.9654C3.20206 12.6836 3.88659 12.3934 4.6357 12.4922ZM4.65164 18.6614C4.93746 18.782 4.83876 18.9945 4.75128 19.1505C4.42821 19.7236 4.08018 20.2946 3.51393 20.6607C2.56728 21.2724 1.59773 21.8571 0.523493 22.2671C0.379008 22.3224 0.217469 22.4959 0.0649321 22.2427C-0.0714998 22.017 0.0207181 21.831 0.210206 21.7421C0.523019 21.5947 0.823357 21.4247 1.13554 21.2838C2.323 20.7499 3.4056 20.1074 4.09518 18.9883C4.20777 18.8062 4.35952 18.6322 4.65164 18.6614ZM2.61623 25.6268C2.95936 25.371 3.36439 25.425 3.6832 25.7306C4.33457 26.3544 5.00772 26.9387 5.82284 27.3465C5.99875 27.4343 6.14039 27.5828 6.02875 27.7733C5.93479 27.933 5.7551 27.8471 5.61377 27.789C4.94614 27.5158 4.37783 27.1001 3.8558 26.6007C3.20443 25.9781 2.95525 26.0346 2.69929 26.8302C2.63139 27.0415 2.57565 27.2528 2.434 27.4259C2.33989 27.5419 2.23109 27.6562 2.05534 27.5938C1.87217 27.5284 1.86033 27.367 1.87359 27.214C1.88512 27.0903 2.09498 26.0156 2.61623 25.6268ZM3.25101 30.3558C2.78914 30.2776 2.36152 30.0706 1.93123 29.8729C1.7828 29.8042 1.63326 29.6923 1.66642 29.5299C1.70479 29.3442 1.8957 29.3792 2.04792 29.4082C2.20062 29.4382 2.35932 29.4677 2.50001 29.5326C3.57109 30.0258 4.51253 29.782 5.41212 29.2872C5.71404 29.1219 5.99559 28.9162 6.37061 28.9031C6.50831 28.8982 6.62753 28.9632 6.70538 29.0753C6.80107 29.2132 6.72006 29.3299 6.61837 29.392C5.60919 30.0082 4.59843 30.627 3.25101 30.3558ZM4.8026 33.1629C4.81255 32.0549 5.65909 31.6516 6.47704 31.229C6.5909 31.1702 6.72575 31.196 6.8276 31.3109C6.92897 31.4249 6.9386 31.5552 6.85286 31.652C6.70806 31.8141 6.56026 31.9839 6.37772 32.1C5.4786 32.672 5.44923 33.5698 5.56308 34.5249C5.57492 34.6237 5.60872 34.723 5.64282 34.8193C5.68893 34.9488 5.70883 35.0818 5.5765 35.1445C5.41339 35.2216 5.2779 35.1277 5.18537 34.985C4.95372 34.6276 4.81903 34.2418 4.7966 33.8339C4.78444 33.6095 4.79976 33.3863 4.8026 33.1629ZM5.12663 11.3272C6.06633 11.525 6.84339 11.8207 7.34064 12.5965C7.42985 12.7362 7.62029 12.9038 7.39859 13.0485C7.23168 13.1571 7.12209 12.9993 7.01014 12.8888C6.26261 12.151 5.39649 11.934 4.43121 12.145C4.13592 12.2099 3.84127 12.282 3.53951 12.3167C3.37592 12.3354 3.15485 12.3591 3.07684 12.1347C3.01826 11.9653 3.15722 11.8564 3.27375 11.7724C3.83969 11.3637 4.51774 11.3019 5.12663 11.3272ZM4.07292 30.8733C4.73834 30.9536 5.28106 30.8383 5.76552 30.4437C5.98864 30.2622 6.20608 30.048 6.54163 30.0452C6.65121 30.044 6.76033 30.0902 6.80739 30.183C6.83265 30.2332 6.79838 30.339 6.75338 30.383C6.28298 30.8411 5.847 31.3692 5.10689 31.429C4.3213 31.4925 3.52324 31.5356 2.76908 31.0886C2.60028 30.9891 2.41885 30.9943 2.23946 30.9739C2.0255 30.9501 1.76795 30.8961 1.75643 30.6585C1.74632 30.4292 1.89712 30.4257 2.05534 30.4317C2.13698 30.4348 3.5223 30.8071 4.07292 30.8733ZM5.32054 21.5933C5.34438 21.5225 5.37201 21.375 5.43991 21.2505C5.50102 21.1377 5.63035 21.0912 5.76678 21.147C5.86721 21.1886 5.94443 21.2853 5.93037 21.3898C5.75683 22.6273 6.3174 23.6448 7.15983 24.5827C7.22663 24.6573 7.28884 24.7853 7.21778 24.8541C7.11357 24.9553 6.97966 24.8807 6.87228 24.7957C5.82631 23.968 5.26022 22.9441 5.32054 21.5933ZM6.77991 32.3782C6.96324 32.4111 7.09272 32.5288 7.00572 32.6893C6.7188 33.22 6.63211 33.7875 6.71043 34.4013C6.72322 34.4998 6.68738 34.6039 6.59232 34.6503C6.48983 34.7007 6.39635 34.639 6.31693 34.5632C5.78762 34.0568 5.98627 32.6637 6.62674 32.3992C6.6708 32.3813 6.72575 32.385 6.77991 32.3782ZM4.1915 28.0344C3.94801 27.8726 3.65225 27.8452 3.33676 27.8383C3.06689 27.832 2.91799 27.6397 2.94736 27.3661C2.97704 27.0889 3.17253 26.9813 3.42803 27.0372C3.91564 27.1439 4.24551 27.4919 4.53795 27.869C4.56874 27.9091 4.54995 28.0221 4.51205 28.0646C4.43231 28.1521 4.32399 28.0831 4.1915 28.0344Z" fill="#00E0EB" fill-opacity="0.76"/>
</svg>
