<svg width="21" height="20" viewBox="0 0 21 20" fill="none" xmlns="http://www.w3.org/2000/svg">
<path d="M10.8965 19.0002C15.867 19.0002 19.8965 14.9708 19.8965 10.0002C19.8965 5.02968 15.867 1.00024 10.8965 1.00024C5.92592 1.00024 1.89648 5.02968 1.89648 10.0002C1.89648 14.9708 5.92592 19.0002 10.8965 19.0002Z" stroke="#00E0EB" stroke-width="2" stroke-linecap="round" stroke-linejoin="round"/>
<path d="M10.8961 15.4002C13.8784 15.4002 16.2961 12.9826 16.2961 10.0002C16.2961 7.01788 13.8784 4.60022 10.8961 4.60022C7.91376 4.60022 5.49609 7.01788 5.49609 10.0002C5.49609 12.9826 7.91376 15.4002 10.8961 15.4002Z" stroke="#00E0EB" stroke-width="2" stroke-linecap="round" stroke-linejoin="round"/>
<path d="M10.8967 11.8002C11.8908 11.8002 12.6967 10.9943 12.6967 10.0002C12.6967 9.00608 11.8908 8.2002 10.8967 8.2002C9.90257 8.2002 9.09668 9.00608 9.09668 10.0002C9.09668 10.9943 9.90257 11.8002 10.8967 11.8002Z" stroke="#00E0EB" stroke-width="2" stroke-linecap="round" stroke-linejoin="round"/>
</svg>
