<svg width="19" height="18" viewBox="0 0 19 18" fill="none" xmlns="http://www.w3.org/2000/svg">
<path d="M15.2298 1.00024C14.5226 1.00024 13.8443 1.2812 13.3442 1.78129C12.8441 2.28139 12.5632 2.95967 12.5632 3.66691V14.3336C12.5632 15.0408 12.8441 15.7191 13.3442 16.2192C13.8443 16.7193 14.5226 17.0002 15.2298 17.0002C15.9371 17.0002 16.6153 16.7193 17.1154 16.2192C17.6155 15.7191 17.8965 15.0408 17.8965 14.3336C17.8965 13.6263 17.6155 12.9481 17.1154 12.448C16.6153 11.9479 15.9371 11.6669 15.2298 11.6669H4.56315C3.85591 11.6669 3.17763 11.9479 2.67753 12.448C2.17744 12.9481 1.89648 13.6263 1.89648 14.3336C1.89648 15.0408 2.17744 15.7191 2.67753 16.2192C3.17763 16.7193 3.85591 17.0002 4.56315 17.0002C5.2704 17.0002 5.94867 16.7193 6.44877 16.2192C6.94887 15.7191 7.22982 15.0408 7.22982 14.3336V3.66691C7.22982 2.95967 6.94887 2.28139 6.44877 1.78129C5.94867 1.2812 5.2704 1.00024 4.56315 1.00024C3.85591 1.00024 3.17763 1.2812 2.67753 1.78129C2.17744 2.28139 1.89648 2.95967 1.89648 3.66691C1.89648 4.37415 2.17744 5.05243 2.67753 5.55253C3.17763 6.05263 3.85591 6.33358 4.56315 6.33358H15.2298C15.9371 6.33358 16.6153 6.05263 17.1154 5.55253C17.6155 5.05243 17.8965 4.37415 17.8965 3.66691C17.8965 2.95967 17.6155 2.28139 17.1154 1.78129C16.6153 1.2812 15.9371 1.00024 15.2298 1.00024Z" stroke="#707070" stroke-width="2" stroke-linecap="round" stroke-linejoin="round"/>
</svg>
