<svg width="39" height="50" fill="none" xmlns="http://www.w3.org/2000/svg">
    <path d="M19.348 7.355c-1.967-.594-4.408.915-4.63 3.282-.152 1.617.401 2.895 1.513 3.919.43.396.937.706 1.378 1.091.627.548 1.101 1.206 1.137 2.112.007.175-.066.34-.253.408-.17.062-.25-.056-.279-.189-.254-1.138-1.12-1.725-1.957-2.353-1.391-1.044-2.24-2.418-2.353-4.269-.136-2.216 1.187-4.294 3.287-5.072 1.303-.485 2.579-.242 3.856-.104.227.024.615-.073.63.312.013.373-.315.524-.61.604-.29.079-.596.1-.895.116-.292.017-.59-.075-.86.145l.036-.002Zm7.977 6.135c.207-.082.557-.038.58-.321.03-.354-.332-.368-.579-.4-1.09-.14-2.189-.181-3.272.212-1.185.431-1.65 1.377-1.318 2.6.28 1.028.675 2.032.34 3.167-.063.217-.001.44.218.49.23.05.365-.161.434-.357.257-.742.232-1.48.082-2.213-.1-.492-.231-.976-.306-1.473-.113-.743.871-1.557 1.59-1.332.203.063.127.205.017.285-.86.625-.777 1.475-.67 2.322.114.902.267 1.798-.01 2.723-.053.18-.014.35.155.428.238.108.368-.078.478-.258.191-.314.195-.656.171-.995-.057-.774.023-1.557-.064-2.332-.087-.791.288-1.193 1.11-1.317 1.074-.16 2.366.542 2.504.252.189-.399-.243-.563-.498-.729-.437-.286-1.118-.477-1.481-.395 0 0 .173-.221.519-.357Zm-11.62 2.824c-2.212-1.57-2.973-3.774-2.319-6.521.587-2.464 2.274-4.236 4.875-4.327.434-.015.886.084 1.32.046.126-.011.216.02.261-.145.045-.16-.046-.258-.156-.328-.71-.452-1.394-.682-2.281-.384-1.046.35-2.07.855-2.927 1.564-.66.546-.939 1.375-1.3 2.114-.854 1.743-1.079 3.544-.598 5.37.227.865.693 1.578 1.322 2.16.647.598 1.318 1.18 2.116 1.574.222.109.581.362.788-.016.162-.293-.168-.46-.375-.611-.236-.173-.484-.332-.727-.496Zm3.643-8.959a6.917 6.917 0 0 0-1.85.51c-1.505.63-2.16 2.213-1.851 3.827.296 1.55 1.152 2.664 2.411 3.44 1.037.64 1.695 1.498 1.867 2.743.033.24.08.53.397.42.255-.09.28-.4.245-.624-.209-1.305-.718-2.393-1.904-3.065-1.108-.627-1.884-1.548-2.203-2.872-.485-2.013.903-3.571 2.922-3.19 1.135.214 2.243.187 3.324-.4.249-.136.717-.16.612-.555-.114-.425-.582-.258-.855-.143-.76.319-1.513.282-2.275.233-.326-.021-.677.005-.88-.323h.04Zm-1.65 5.27c1.442.96 3.023 1.175 4.732.536 1.146-.428 2.241-1.01 3.412-1.37.195-.058.56-.053.505-.386-.063-.371-.414-.246-.661-.19-.657.151-1.333.26-1.945.579-1.485.775-3.005 1.002-4.575.67-.16-.035-.32-.07-.474-.126-.496-.178-.991-.784-.893-1.166.144-.554.538-.856 1.089-.969.598-.122 1.217-.263 1.788-.124.935.228 1.856-.026 2.783-.111.163-.016.335-.072.484-.15.326-.171.857-.342.74-.735-.146-.496-.613-.092-.938-.01-.89.224-1.785.367-2.68.24a6.6 6.6 0 0 0-2.386.092c-.616.137-1.126.45-1.445 1.06-.512.975-.395 1.557.463 2.16Zm15.678 9.21c-.743 1.017-.095 1.39.568 1.823.46.3.71.854 1.194 1.148.135.083.276.217.439.057.145-.144.091-.315.009-.463-.252-.456-.696-.777-.877-1.294.055-.02.08-.035.103-.035.281-.008.53.5.776.143.24-.35-.076-.689-.308-.959a.794.794 0 0 0-.334-.196c-.26-.091-.405-.204-.18-.503.165-.22.376-.496.076-.701-.26-.177-.501.052-.712.238-.102.09-.199.186-.326.307-.129-.314.077-.528.165-.76.126-.332.185-.666.054-.992-.034-.085-.111-.188-.189-.205-.145-.03-.242.079-.278.227-.226.924-.77 1.601-1.58 2.09-.542.327-.52 1.03-.942 1.457-.142.145.04.293.191.373.403.214.794.452 1.21.64.555.248.966.65 1.337 1.116.132.165.31.405.567.202.242-.191.11-.454.01-.648-.263-.51-.68-.865-1.174-1.144-1.504-.848-1.5-.854.022-1.824.057-.037.12-.065.18-.096ZM12.671 5.578a9.718 9.718 0 0 0-1.586 4.964c-.005.135.01.272.033.403.035.204.099.416.348.405.287-.013.289-.274.287-.461-.01-.931.258-1.821.493-2.722.499-1.917 1.743-3.002 3.58-3.473.206-.053.535.041.566-.294.027-.289-.89-.46-1.13-.362-.986.406-1.94.767-2.591 1.54Zm5.781 5.6c-.17.37.127.472.361.534.86.224 1.742.424 2.65.239 1.515-.31 3.028-.664 4.482-1.273.195-.081.519-.071.433-.44-.077-.328-.343-.413-.615-.32-.45.151-.908.271-1.35.428-1.683.6-3.363 1.005-5.1.62-.283-.062-.598-.08-.86.212Zm8.57 4.45c-.582.082-.934.5-.964 1.067-.061 1.16-.181 2.302-.608 3.414-.093.24-.094.504.196.575.244.058.341-.183.427-.364.407-.857.582-1.751.631-2.68.063-1.157.363-1.333 1.366-.846.266.13.52.27.823.297.203.02.418.024.534-.193.12-.226-.019-.383-.176-.51-.128-.1-1.346-.883-2.23-.76Zm3.812 4.861c.386-.492.617-1.07.858-1.64.083-.198.127-.436-.059-.552-.212-.134-.37.072-.493.237-.124.167-.254.338-.333.525-.601 1.423-1.766 2.06-3.125 2.433-.456.126-.929.196-1.314.526a.489.489 0 0 0-.171.461c.034.213.225.244.384.208 1.582-.363 3.169-.724 4.253-2.198Zm1.096 3.956c-1.051-.994-2.272-.587-3.482-.224a.378.378 0 0 0-.272.394c.007.196.12.322.296.332.296.015.602.034.893-.028 1.431-.302 2.304.485 3.089 1.453.08.1.14.221.197.34.076.159.181.297.371.233.235-.079.282-.287.24-.5a2.82 2.82 0 0 0-.696-1.397c-.199-.215-.424-.403-.636-.602ZM11.088 4.97c-.748 1.036-1.243 2.013-1.008 3.168.043.208.01.534.367.462.268-.053.229-.296.236-.498.05-1.35.707-2.336 1.865-3.025.354-.21.715-.414 1.048-.658.18-.132.422-.312.289-.586-.101-.207-.342-.18-.537-.149-.946.146-1.678.708-2.26 1.286Zm19.416 16.737c-.587.68-1.234 1.07-2.087 1.154-.392.04-.81.044-1.146.347-.11.1-.175.24-.135.367.023.069.156.133.242.132.898-.014 1.828.067 2.62-.554.84-.659 1.674-1.347 2.004-2.44.074-.244.26-.405.419-.587.19-.216.395-.5.183-.726-.205-.216-.358-.082-.51.068-.078.077-1.105 1.677-1.59 2.24Zm-9.961-7.265c-.09-.042-.257-.15-.441-.201a.355.355 0 0 0-.422.204c-.061.13-.047.287.065.37 1.336.961 1.735 2.394 1.778 4.011.004.128.063.301.198.299.198-.004.262-.193.288-.368.262-1.703-.137-3.147-1.466-4.315Zm8.684 11.096c-.152.197-.17.421.067.487.784.22 1.404.654 1.903 1.281.08.101.213.163.351.118.15-.048.184-.189.192-.33.05-.941-1.456-2.021-2.341-1.677-.061.024-.112.078-.172.12Zm-1.51-6.293c.09-.369.36-.663.666-.957.263-.252.23-.562-.056-.783-.29-.224-.586-.143-.787.14-.385.542-.386 1.158-.322 1.766.007.064.132.15.21.153.161.007.204-.154.29-.32ZM7.867 31.712c-.847-1.914.375-4.57 2.74-5.089 1.615-.355 2.975.045 4.149 1.041.454.386.83.86 1.275 1.257.632.565 1.355.963 2.276.886.178-.015.336-.108.381-.306.04-.18-.088-.246-.226-.259-1.181-.115-1.883-.916-2.623-1.685-1.228-1.276-2.722-1.962-4.607-1.846-2.257.139-4.192 1.734-4.717 3.954-.327 1.378.076 2.637.375 3.91.053.227.003.631.394.598.378-.032.49-.383.534-.69.044-.304.027-.616.007-.92-.02-.298-.15-.588.039-.888l.003.037Zm7.193 7.298c-.056.22.032.568-.251.627-.354.074-.413-.29-.476-.536-.277-1.084-.457-2.19-.194-3.333.288-1.252 1.186-1.84 2.465-1.657 1.073.155 2.136.43 3.242-.05.212-.091.444-.057.521.158.08.226-.116.39-.306.484-.717.352-1.467.418-2.226.359-.51-.04-1.016-.112-1.527-.127-.765-.021-1.465 1.075-1.148 1.774.09.197.223.103.29-.018.525-.948 1.394-.97 2.264-.968.926.004 1.85.047 2.75-.348.176-.076.353-.058.452.103.14.227-.032.381-.201.515-.293.232-.639.279-.984.297-.79.04-1.57.217-2.366.226-.81.01-1.17.44-1.191 1.287-.03 1.104.842 2.322.565 2.498-.379.24-.598-.175-.798-.412-.344-.407-.621-1.071-.584-1.448 0 0-.202.202-.296.569Zm1.407-12.097c-1.862-2.04-4.185-2.534-6.88-1.53-2.417.9-3.998 2.826-3.765 5.466.039.44.195.884.21 1.328.005.129.048.216-.113.282-.157.065-.267-.014-.351-.117-.546-.662-.863-1.324-.673-2.258.223-1.1.607-2.198 1.216-3.153.47-.735 1.273-1.12 1.975-1.578 1.656-1.08 3.447-1.531 5.353-1.273.902.122 1.681.504 2.347 1.068.686.579 1.358 1.185 1.855 1.942.138.21.439.542.083.799-.277.2-.487-.113-.665-.303-.204-.217-.395-.448-.592-.673Zm-8.6 4.799a7.045 7.045 0 0 1 .284-1.933c.449-1.6 1.968-2.459 3.638-2.348 1.603.105 2.836.832 3.778 2.008.776.968 1.724 1.526 3.004 1.545.246.004.545.015.473.35-.058.268-.369.332-.6.325-1.345-.049-2.507-.427-3.334-1.543-.772-1.041-1.8-1.71-3.178-1.868-2.094-.24-3.497 1.357-2.86 3.35.358 1.121.468 2.244.01 3.41-.106.268-.072.745-.484.688-.445-.063-.334-.557-.252-.846.228-.809.096-1.565-.048-2.33-.062-.326-.08-.685-.436-.849l.005.04Zm5.12-2.325c1.15 1.338 1.565 2.91 1.132 4.716-.29 1.212-.741 2.391-.96 3.62-.035.204.016.573-.328.559-.383-.018-.3-.389-.274-.645.071-.683.097-1.38.343-2.038.598-1.598.638-3.162.107-4.707a3.62 3.62 0 0 0-.186-.464c-.241-.48-.916-.904-1.29-.757-.542.214-.798.65-.844 1.22-.049.62-.113 1.264.098 1.824.347.916.205 1.879.234 2.826a1.38 1.38 0 0 1-.09.509c-.133.35-.24.908-.652.839-.519-.086-.169-.609-.127-.947.116-.928.15-1.85-.091-2.74a6.721 6.721 0 0 1-.204-2.422c.062-.64.315-1.194.89-1.592.922-.639 1.525-.594 2.242.199Zm11.263 14.7c.934-.879 1.393-.27 1.913.346.36.428.952.612 1.31 1.064.1.126.252.252.11.436-.127.166-.305.132-.466.067-.492-.198-.872-.606-1.417-.725-.013.059-.025.085-.023.108.028.286.572.474.242.767-.324.286-.706.01-1.008-.192-.104-.07-.181-.195-.24-.313-.124-.25-.256-.384-.53-.12-.203.195-.455.442-.7.165-.21-.24-.01-.513.152-.749.08-.114.164-.224.27-.368-.333-.091-.524.144-.748.261-.32.169-.65.27-.995.179-.09-.024-.204-.09-.231-.166-.05-.142.05-.254.195-.309.905-.343 1.523-.978 1.916-1.858.263-.588.975-.654 1.355-1.133.128-.162.3.003.4.147.267.38.556.746.797 1.143.32.53.778.895 1.296 1.212.183.113.447.262.274.548-.163.268-.445.168-.654.09-.548-.202-.958-.578-1.302-1.044-1.044-1.414-1.05-1.41-1.84.25-.031.062-.052.13-.076.193ZM5.238 25.184a9.896 9.896 0 0 1 4.82-2.222 1.96 1.96 0 0 1 .411-.017c.21.01.433.048.452.301.024.292-.24.327-.43.348-.942.106-1.808.488-2.689.838-1.875.743-2.817 2.135-3.064 4.05-.028.215.108.536-.227.61-.288.063-.576-.844-.507-1.098.288-1.047.534-2.055 1.234-2.81Zm6.38 5.145c.353-.218.493.07.585.298.334.841.645 1.708.572 2.648-.124 1.57-.294 3.145-.728 4.69-.058.207-.008.533-.39.492-.342-.037-.46-.296-.402-.582.098-.473.162-.951.266-1.418.396-1.775.596-3.524-.009-5.232-.098-.278-.157-.593.106-.896Zm5.567 8.107c.01-.598.388-1.006.958-1.107 1.163-.206 2.304-.47 3.375-1.04.23-.123.497-.157.604.127.09.239-.142.368-.314.477-.815.518-1.697.806-2.63.971-1.161.208-1.302.534-.685 1.486.164.253.338.492.403.795.045.203.076.42-.128.564-.214.15-.39.029-.537-.114-.119-.117-1.06-1.251-1.046-2.16Zm5.387 3.248c-.449.45-1.003.756-1.55 1.072-.19.108-.425.182-.566.009-.161-.199.027-.383.179-.529.152-.145.31-.298.489-.401 1.363-.785 1.863-2.042 2.07-3.462.07-.477.082-.964.367-1.394a.498.498 0 0 1 .445-.23c.219.008.275.197.258.362-.17 1.645-.337 3.293-1.692 4.573Zm4.136.614c-1.136-.938-.877-2.223-.66-3.491a.385.385 0 0 1 .363-.324c.199-.018.341.08.373.258.052.297.109.605.083.906-.127 1.484.776 2.268 1.853 2.94.112.07.241.115.368.158.17.057.323.146.282.346-.05.247-.255.32-.476.304a2.872 2.872 0 0 1-1.498-.529c-.242-.174-.46-.378-.688-.568ZM4.427 23.661c.954-.886 1.879-1.507 3.076-1.414.216.017.54-.056.513.313-.021.278-.271.268-.475.301-1.358.219-2.273 1.006-2.825 2.262-.168.384-.329.774-.534 1.14-.111.2-.263.466-.557.366-.221-.076-.223-.323-.217-.524.03-.975.507-1.785 1.019-2.444Zm19.335 17.538c.614-.677.928-1.38.907-2.253-.01-.401-.057-.824.208-1.201.086-.124.22-.207.354-.182.072.014.154.14.163.228.098.91.295 1.839-.233 2.717-.562.931-1.154 1.86-2.216 2.33-.238.105-.377.312-.541.495-.196.22-.457.463-.711.277-.245-.18-.128-.352.004-.524.068-.09 1.558-1.327 2.065-1.887Zm-8.584-9.163c-.054-.086-.184-.24-.258-.42a.362.362 0 0 1 .154-.452c.123-.078.284-.083.38.02 1.14 1.23 2.637 1.454 4.277 1.297.13-.012.312.026.327.163.021.2-.163.288-.336.337-1.689.477-3.197.253-4.544-.945Zm12.297 7.395c.18-.178.405-.224.501.008.32.765.836 1.337 1.532 1.763.112.068.19.195.163.34-.03.157-.168.21-.31.236-.945.168-2.224-1.22-1.986-2.158.016-.064.064-.123.1-.19Zm-6.549-.741c-.36.137-.625.445-.884.792-.222.296-.539.302-.798.04-.262-.265-.217-.574.044-.813.5-.456 1.122-.533 1.744-.545.066 0 .168.115.181.193.027.162-.13.226-.287.333Z" fill="#fff" fill-opacity=".5"/>
</svg>
